<svg width="642" height="116" viewBox="0 0 642 116" fill="none" xmlns="http://www.w3.org/2000/svg">
<path d="M8.64 115.6V102.907H23.1467L28.5867 89.68L0.64 26H17.3867L36.5867 71.3333H37.12L55.68 26H71.7867L44.3733 90L38.8267 103.227C37.12 107.138 35.2356 110.16 33.1733 112.293C31.1822 114.498 27.9822 115.6 23.5733 115.6H8.64ZM97.9833 91.1733C90.5167 91.1733 84.65 89.36 80.3833 85.7333C76.1878 82.1067 74.09 77.3067 74.09 71.3333C74.09 65.0756 76.2233 60.24 80.49 56.8267C84.8278 53.4133 91.05 51.7067 99.1567 51.7067H118.677V49.1467C118.677 41.3244 114.126 37.4133 105.023 37.4133C97.3433 37.4133 92.6856 40.1867 91.05 45.7333H75.1567C76.4367 38.9067 79.6367 33.7156 84.7567 30.16C89.9478 26.5333 96.7033 24.72 105.023 24.72C114.41 24.72 121.557 26.8533 126.463 31.12C131.37 35.3156 133.823 41.4667 133.823 49.5733V74.1067H141.397V90H125.077V79.76H120.597C118.392 83.3867 115.406 86.1956 111.637 88.1867C107.939 90.1778 103.388 91.1733 97.9833 91.1733ZM100.33 78.9067C103.814 78.9067 106.943 78.2667 109.717 76.9867C112.49 75.6356 114.659 73.8578 116.223 71.6533C117.859 69.3778 118.677 66.8533 118.677 64.08V62.5867H100.01C92.8278 62.5867 89.2367 65.2533 89.2367 70.5867C89.2367 73.2178 90.1967 75.28 92.1167 76.7733C94.1078 78.1956 96.8456 78.9067 100.33 78.9067ZM179.56 91.28C170.316 91.28 163.027 89.36 157.693 85.52C152.36 81.6089 149.48 76.1689 149.053 69.2H164.52C165.018 72.5422 166.547 75.0311 169.107 76.6667C171.667 78.2311 175.364 79.0133 180.2 79.0133C188.378 79.0133 192.467 76.6311 192.467 71.8667C192.467 69.9467 191.827 68.4533 190.547 67.3867C189.338 66.32 187.276 65.5022 184.36 64.9333L170.28 62.2667C157.764 59.8489 151.507 53.9467 151.507 44.56C151.507 38.5156 153.889 33.7156 158.653 30.16C163.418 26.5333 169.996 24.72 178.387 24.72C186.778 24.72 193.427 26.5689 198.333 30.2667C203.311 33.8933 206.084 39.0489 206.653 45.7333H191.293C190.511 42.5333 189.018 40.2222 186.813 38.8C184.68 37.3067 181.587 36.56 177.533 36.56C173.907 36.56 171.133 37.1289 169.213 38.2667C167.293 39.4044 166.333 41.0756 166.333 43.28C166.333 44.9156 166.938 46.2311 168.147 47.2267C169.356 48.2222 171.276 48.9689 173.907 49.4667L188.307 52.24C194.849 53.52 199.649 55.6533 202.707 58.64C205.764 61.6267 207.293 65.6444 207.293 70.6933C207.293 77.1644 204.911 82.2133 200.147 85.84C195.382 89.4667 188.52 91.28 179.56 91.28ZM217.967 90V0.400002H233.86V35.4933H234.287C236.349 32.0089 239.158 29.3778 242.713 27.6C246.269 25.7511 250.464 24.8267 255.3 24.8267C263.336 24.8267 269.7 27.2444 274.393 32.08C279.158 36.9156 281.54 43.3511 281.54 51.3867V90H265.647V54.3733C265.647 49.3244 264.296 45.4844 261.593 42.8533C258.891 40.2222 254.944 38.9067 249.753 38.9067C244.562 38.9067 240.616 40.2222 237.913 42.8533C235.211 45.4844 233.86 49.3244 233.86 54.3733V90H217.967ZM325.745 91.28C319.132 91.28 313.336 89.9289 308.358 87.2267C303.381 84.4533 299.505 80.5778 296.732 75.6C293.958 70.6222 292.572 64.7556 292.572 58C292.572 51.2444 293.923 45.3778 296.625 40.4C299.398 35.4222 303.274 31.5822 308.252 28.88C313.229 26.1067 319.061 24.72 325.745 24.72C333.994 24.72 340.821 26.8178 346.225 31.0133C351.629 35.1378 355.043 40.8978 356.465 48.2933H340.572C339.505 45.0933 337.727 42.6756 335.238 41.04C332.749 39.4044 329.585 38.5867 325.745 38.5867C320.483 38.5867 316.287 40.2933 313.158 43.7067C310.029 47.0489 308.465 51.8133 308.465 58C308.465 64.1867 310.029 68.9867 313.158 72.4C316.287 75.7422 320.483 77.4133 325.745 77.4133C333.994 77.4133 339.043 73.8578 340.892 66.7467H356.892C355.541 74.4978 352.163 80.5422 346.758 84.88C341.354 89.1467 334.349 91.28 325.745 91.28ZM370.587 90V41.8933H362.693V26H378.907V38.3733H383.387C385.164 34.1067 387.902 30.8711 391.6 28.6667C395.298 26.4622 399.529 25.36 404.293 25.36H409.627V39.0133H403.547C397.787 39.0133 393.449 40.6844 390.533 44.0267C387.689 47.3689 386.267 51.8133 386.267 57.36V90H370.587ZM437.733 91.1733C430.267 91.1733 424.4 89.36 420.133 85.7333C415.938 82.1067 413.84 77.3067 413.84 71.3333C413.84 65.0756 415.973 60.24 420.24 56.8267C424.578 53.4133 430.8 51.7067 438.907 51.7067H458.427V49.1467C458.427 41.3244 453.876 37.4133 444.773 37.4133C437.093 37.4133 432.436 40.1867 430.8 45.7333H414.907C416.187 38.9067 419.387 33.7156 424.507 30.16C429.698 26.5333 436.453 24.72 444.773 24.72C454.16 24.72 461.307 26.8533 466.213 31.12C471.12 35.3156 473.573 41.4667 473.573 49.5733V74.1067H481.147V90H464.827V79.76H460.347C458.142 83.3867 455.156 86.1956 451.387 88.1867C447.689 90.1778 443.138 91.1733 437.733 91.1733ZM440.08 78.9067C443.564 78.9067 446.693 78.2667 449.467 76.9867C452.24 75.6356 454.409 73.8578 455.973 71.6533C457.609 69.3778 458.427 66.8533 458.427 64.08V62.5867H439.76C432.578 62.5867 428.987 65.2533 428.987 70.5867C428.987 73.2178 429.947 75.28 431.867 76.7733C433.858 78.1956 436.596 78.9067 440.08 78.9067ZM498.617 90V38.3733H486.67V26H498.723V13.52C498.723 9.04 499.897 5.73333 502.243 3.6C504.661 1.46667 508.003 0.400002 512.27 0.400002H530.403V12.7733H514.297V26H529.123V38.3733H514.51V90H498.617ZM557.453 90C553.258 90 549.987 88.9333 547.64 86.8C545.364 84.6667 544.227 81.4311 544.227 77.0933V38.3733H532.92V26H544.333V6.8H559.907V26H575.373V38.3733H560.12V77.52H576.867V90H557.453ZM613.935 91.28C604.691 91.28 597.402 89.36 592.068 85.52C586.735 81.6089 583.855 76.1689 583.428 69.2H598.895C599.393 72.5422 600.922 75.0311 603.482 76.6667C606.042 78.2311 609.739 79.0133 614.575 79.0133C622.753 79.0133 626.842 76.6311 626.842 71.8667C626.842 69.9467 626.202 68.4533 624.922 67.3867C623.713 66.32 621.651 65.5022 618.735 64.9333L604.655 62.2667C592.139 59.8489 585.882 53.9467 585.882 44.56C585.882 38.5156 588.264 33.7156 593.028 30.16C597.793 26.5333 604.371 24.72 612.762 24.72C621.153 24.72 627.802 26.5689 632.708 30.2667C637.686 33.8933 640.459 39.0489 641.028 45.7333H625.668C624.886 42.5333 623.393 40.2222 621.188 38.8C619.055 37.3067 615.962 36.56 611.908 36.56C608.282 36.56 605.508 37.1289 603.588 38.2667C601.668 39.4044 600.708 41.0756 600.708 43.28C600.708 44.9156 601.313 46.2311 602.522 47.2267C603.731 48.2222 605.651 48.9689 608.282 49.4667L622.682 52.24C629.224 53.52 634.024 55.6533 637.082 58.64C640.139 61.6267 641.668 65.6444 641.668 70.6933C641.668 77.1644 639.286 82.2133 634.522 85.84C629.757 89.4667 622.895 91.28 613.935 91.28Z" fill="white"/>
</svg>
